<?xml version="1.0" standalone="no"?>
<!DOCTYPE svg PUBLIC "-//W3C//DTD SVG 20010904//EN"
 "http://www.w3.org/TR/2001/REC-SVG-20010904/DTD/svg10.dtd">
<svg version="1.0" xmlns="http://www.w3.org/2000/svg"
 width="512.000000pt" height="512.000000pt" viewBox="0 0 512.000000 512.000000"
 preserveAspectRatio="xMidYMid meet">
<metadata>
Created by potrace 1.14, written by Peter Selinger 2001-2017
</metadata>
<g transform="translate(0.000000,512.000000) scale(0.100000,-0.100000)"
fill="#000000" stroke="none">
<path d="M2100 4541 c0 -3 -28 -6 -63 -7 -61 -1 -222 -11 -222 -14 0 -1 -22
-3 -50 -5 -86 -7 -149 -13 -186 -20 -19 -3 -53 -7 -75 -9 -22 -1 -45 -5 -50
-8 -5 -3 -17 -4 -26 -3 -10 2 -18 0 -18 -3 0 -4 -10 -7 -22 -8 -55 -2 -98 -9
-98 -14 0 -3 -8 -6 -17 -7 -49 -3 -83 -9 -83 -13 0 -3 -17 -6 -37 -8 -20 -1
-39 -6 -43 -10 -3 -4 -14 -8 -25 -9 -40 -4 -60 -9 -70 -14 -5 -4 -35 -12 -65
-20 -30 -7 -57 -14 -60 -14 -3 -1 -14 -5 -25 -9 -11 -4 -31 -12 -45 -16 -14
-4 -34 -12 -45 -16 -11 -4 -22 -8 -25 -9 -3 -1 -22 -9 -44 -18 -21 -9 -40 -17
-43 -17 -8 0 -158 -73 -163 -79 -3 -3 -18 -13 -35 -21 -16 -8 -35 -19 -42 -25
-7 -5 -19 -16 -27 -22 -8 -7 -19 -13 -25 -13 -5 0 -24 -12 -42 -27 -53 -45
-183 -173 -175 -173 4 0 -4 -10 -17 -22 -14 -13 -25 -27 -25 -33 -1 -5 -9 -21
-19 -34 -10 -13 -18 -27 -18 -30 -1 -3 -10 -27 -22 -52 -39 -86 -51 -167 -48
-326 2 -131 7 -166 33 -233 3 -8 6 -18 6 -22 1 -4 7 -13 14 -19 6 -7 12 -17
12 -21 0 -21 138 -159 157 -158 5 0 16 -7 26 -15 9 -8 23 -15 30 -15 7 0 18
-5 23 -10 6 -6 19 -12 30 -14 10 -2 39 -11 64 -19 73 -24 165 -39 253 -40 58
-1 76 -16 41 -35 -9 -5 -15 -12 -15 -16 2 -10 -30 -70 -41 -77 -5 -3 -8 -8 -7
-10 4 -5 -53 -102 -64 -110 -5 -3 -8 -9 -8 -13 1 -3 -20 -43 -46 -88 -27 -45
-47 -86 -45 -90 1 -5 -5 -11 -13 -14 -8 -4 -15 -14 -15 -24 0 -10 -4 -20 -8
-22 -4 -1 -21 -25 -36 -53 -16 -27 -38 -68 -51 -90 -12 -22 -35 -62 -50 -90
-15 -27 -32 -56 -37 -62 -6 -7 -7 -13 -4 -13 4 0 0 -7 -8 -16 -9 -8 -16 -21
-16 -29 0 -7 -3 -15 -8 -17 -9 -4 -82 -145 -82 -159 0 -6 -7 -17 -15 -26 -8
-8 -13 -19 -10 -24 4 -5 1 -9 -6 -9 -7 0 -10 -3 -6 -6 3 -3 -6 -26 -19 -50
-14 -24 -22 -44 -19 -44 3 0 0 -10 -6 -22 -7 -13 -16 -38 -21 -58 -5 -19 -11
-44 -14 -55 -13 -54 -19 -121 -18 -230 0 -96 5 -135 23 -195 28 -91 78 -200
92 -200 6 0 7 -5 4 -10 -3 -6 0 -17 7 -25 30 -33 38 -45 32 -45 -4 0 5 -11 20
-25 14 -13 26 -26 26 -29 0 -13 130 -131 130 -118 0 4 4 3 8 -3 12 -16 69 -45
76 -38 3 3 6 1 6 -5 0 -19 104 -33 251 -34 79 0 149 1 154 2 6 1 13 2 18 1 11
-3 210 -4 222 -1 6 1 13 2 18 1 11 -3 210 -4 222 -1 6 1 13 2 18 1 11 -3 210
-4 222 -1 6 1 13 2 18 1 11 -3 210 -4 222 -1 6 1 15 2 20 0 14 -2 928 -3 940
0 6 1 13 2 18 1 11 -3 210 -4 222 -1 6 1 13 2 18 1 11 -3 210 -4 222 -1 6 1
13 2 18 1 11 -3 210 -4 222 -1 6 1 13 2 18 1 11 -3 210 -4 222 -1 6 1 15 2 20
0 23 -4 805 -1 858 3 31 3 71 13 89 21 17 9 37 16 45 16 7 0 13 5 13 10 0 6 5
10 10 10 24 0 170 129 170 150 0 6 4 10 8 10 4 0 16 13 25 30 10 16 23 35 30
42 11 12 70 126 72 138 0 3 4 10 8 17 11 17 36 101 45 148 9 53 9 235 -1 308
-8 60 -53 205 -68 222 -5 5 -9 17 -9 27 0 10 -4 18 -10 18 -5 0 -10 6 -10 13
0 6 -28 66 -61 132 -34 66 -67 130 -73 142 -6 13 -15 23 -19 23 -5 0 -6 4 -3
9 3 5 -4 20 -15 35 -11 14 -17 26 -13 26 4 0 -1 7 -12 15 -10 8 -15 15 -10 15
5 0 2 7 -5 16 -15 18 -28 40 -59 99 -11 22 -28 54 -38 70 -9 17 -33 57 -51 90
-19 33 -40 67 -47 75 -7 8 -14 22 -16 30 -2 8 -11 23 -20 34 -10 11 -18 26
-18 33 0 7 -5 13 -10 13 -6 0 -9 4 -8 9 2 5 -3 18 -9 28 -51 75 -62 93 -57 93
3 0 -4 13 -15 29 -12 16 -21 34 -21 41 0 6 -4 9 -8 6 -4 -2 -8 3 -9 13 -1 15
7 17 50 16 29 -1 56 1 62 4 5 3 23 6 40 7 42 2 103 13 145 26 35 11 49 14 63
17 7 1 87 43 137 72 34 19 130 116 123 123 -4 3 -1 6 5 6 7 0 12 7 12 15 0 8
4 15 8 15 5 0 19 33 32 73 42 127 36 397 -11 507 -27 63 -76 153 -91 170 -10
11 -18 22 -18 26 0 3 -22 29 -50 56 -28 27 -50 54 -50 59 0 5 -6 9 -14 9 -8 0
-17 7 -20 16 -4 9 -9 14 -12 11 -3 -3 -17 5 -30 18 -44 44 -217 143 -344 198
-88 37 -247 92 -300 102 -8 2 -17 4 -20 5 -3 1 -8 2 -12 1 -5 0 -8 4 -8 10 0
5 -5 7 -11 4 -5 -4 -22 -2 -37 4 -15 5 -43 13 -62 16 -33 6 -59 11 -70 15 -3
1 -9 2 -14 1 -4 -1 -13 2 -20 7 -6 4 -23 8 -38 7 -16 0 -28 2 -28 5 0 4 -12 7
-27 7 -16 1 -44 4 -63 8 -19 4 -46 8 -60 10 -14 2 -25 4 -25 5 0 2 -20 5 -105
14 -25 2 -45 5 -45 6 0 2 -76 9 -150 15 -33 2 -60 5 -60 6 0 1 -48 5 -178 12
-49 3 -91 8 -94 11 -3 2 -16 1 -29 -4 -14 -6 -24 -6 -24 -1 0 5 -189 9 -435 8
-239 0 -435 -3 -435 -6z"/>
</g>
</svg>
